<?xml version="1.0" encoding="utf-8"?>
<!-- Generator: Adobe Illustrator 15.1.0, SVG Export Plug-In . SVG Version: 6.00 Build 0)  -->
<!DOCTYPE svg PUBLIC "-//W3C//DTD SVG 1.1//EN" "http://www.w3.org/Graphics/SVG/1.1/DTD/svg11.dtd">
<svg version="1.1" id="レイヤー_1" xmlns="http://www.w3.org/2000/svg" xmlns:xlink="http://www.w3.org/1999/xlink" x="0px"
	 y="0px" width="371.678px" height="78.323px" viewBox="0 0 371.678 78.323" enable-background="new 0 0 371.678 78.323"
	 xml:space="preserve">
<g>
	<g>
		<defs>
			<rect id="SVGID_1_" x="6.95" y="4" width="356.022" height="67.322"/>
		</defs>
		<clipPath id="SVGID_2_">
			<use xlink:href="#SVGID_1_"  overflow="visible"/>
		</clipPath>
		<path clip-path="url(#SVGID_2_)" fill="#E50012" d="M98.88,32.23c0.028-8.252-6.369-14.953-14.293-14.978
			c-7.925-0.023-14.369,6.641-14.399,14.891L98.88,32.23z"/>
	</g>
	<g>
		<defs>
			<rect id="SVGID_3_" x="6.95" y="4" width="356.022" height="67.322"/>
		</defs>
		<clipPath id="SVGID_4_">
			<use xlink:href="#SVGID_3_"  overflow="visible"/>
		</clipPath>
		<path clip-path="url(#SVGID_4_)" fill="#E50012" d="M85.766,40.322c0-2.888,2.341-5.229,5.23-5.229
			c2.888,0,5.229,2.341,5.229,5.229c0,2.889-2.341,5.23-5.229,5.23C88.107,45.552,85.766,43.21,85.766,40.322 M70.271,34.819
			c-0.028,8.248,6.37,14.951,14.296,14.976c7.922,0.023,14.366-6.645,14.394-14.891L70.271,34.819z"/>
	</g>
	<g>
		<defs>
			<rect id="SVGID_5_" x="6.95" y="4" width="356.022" height="67.322"/>
		</defs>
		<clipPath id="SVGID_6_">
			<use xlink:href="#SVGID_5_"  overflow="visible"/>
		</clipPath>
		<path clip-path="url(#SVGID_6_)" fill="#E50012" d="M29.458,13.967c-6.517-4.688-15.453-2.985-19.96,3.804
			c-4.508,6.783-2.877,16.087,3.638,20.773L29.458,13.967z"/>
	</g>
	<g>
		<defs>
			<rect id="SVGID_7_" x="6.95" y="4" width="356.022" height="67.322"/>
		</defs>
		<clipPath id="SVGID_8_">
			<use xlink:href="#SVGID_7_"  overflow="visible"/>
		</clipPath>
		<path clip-path="url(#SVGID_8_)" fill="#E50012" d="M10.414,47.474c6.517,4.687,15.451,2.984,19.958-3.803
			c4.508-6.786,2.878-16.089-3.638-20.775L10.414,47.474z"/>
	</g>
	<g>
		<defs>
			<rect id="SVGID_9_" x="6.95" y="4" width="356.022" height="67.322"/>
		</defs>
		<clipPath id="SVGID_10_">
			<use xlink:href="#SVGID_9_"  overflow="visible"/>
		</clipPath>
		<path clip-path="url(#SVGID_10_)" fill="#E50012" d="M64.453,49.029c5.818-5.608,6.167-15.055,0.784-21.103
			c-5.38-6.05-14.464-6.41-20.275-0.802L64.453,49.029z"/>
	</g>
	<g>
		<defs>
			<rect id="SVGID_11_" x="6.95" y="4" width="356.022" height="67.322"/>
		</defs>
		<clipPath id="SVGID_12_">
			<use xlink:href="#SVGID_11_"  overflow="visible"/>
		</clipPath>
		<path clip-path="url(#SVGID_12_)" fill="#E50012" d="M38.921,24.125c-5.813,5.605-6.163,15.056-0.783,21.101
			c5.387,6.053,14.463,6.409,20.279,0.801L38.921,24.125z"/>
	</g>
</g>
<g>
	<path fill="#231815" d="M112.343,18.314v-3.628h3.483v3.628h6.385v2.757h-1.887l-1.597,5.225h4.209v2.757h-7.256v3.628h6.24v2.902
		h-6.24v1.306c1.644,0.969,3.53,1.984,5.66,3.048l-1.596,3.047c-1.066-0.483-2.419-1.256-4.063-2.322v7.401h-3.338v-8.853
		c-0.871,1.356-1.741,2.467-2.612,3.338c-0.678,0.871-1.694,1.887-3.047,3.048c-0.871-1.161-1.694-2.08-2.468-2.758
		c2.322-1.935,4.644-4.353,6.966-7.256h-5.805v-2.902h6.966v-3.628h-7.691v-2.757h4.644l-1.451-5.225h-2.322v-2.757L112.343,18.314
		L112.343,18.314z M116.987,21.071h-5.95c0.966,3.193,1.499,4.935,1.596,5.225h2.903c0.483-1.547,0.846-2.78,1.088-3.701
		C116.865,21.676,116.987,21.168,116.987,21.071z M127.582,20.926v5.225h10.594v3.047h-3.192v18.866h-3.338V29.198h-4.063
		c0,4.354-0.146,7.401-0.436,9.143c-0.485,2.129-1.016,3.726-1.597,4.789c-0.775,1.645-2.031,3.483-3.773,5.515
		c-0.678-0.775-1.549-1.694-2.612-2.758c1.644-1.836,2.757-3.24,3.337-4.209c0.581-1.255,0.966-2.417,1.161-3.482
		c0.386-1.546,0.581-4.208,0.581-7.981l0.145-12.771l2.757,0.581c2.417-0.773,5.417-1.935,8.998-3.483l2.177,2.903l-4.354,1.596
		C134.062,19.04,131.935,19.67,127.582,20.926z"/>
	<path fill="#231815" d="M152.397,23.974l-2.903,5.515v18.721h-3.338V35.003c-0.097,0.291-0.413,0.775-0.943,1.451
		c-0.533,0.678-0.993,1.306-1.378,1.887c-0.678-1.064-1.549-1.934-2.612-2.613c1.256-1.353,2.225-2.612,2.902-3.773
		c0.095-0.095,0.363-0.531,0.798-1.306c0.435-0.773,0.943-1.644,1.524-2.612c0.095-0.193,0.41-0.846,0.943-1.959
		c0.53-1.111,1.136-2.49,1.814-4.136L152.397,23.974z M156.751,17.443V14.54h3.628v2.903h13.497v7.401h-2.177v1.596h-7.111
		l-0.871,3.483h8.417v18.286h-3.628v-1.74h-10.739v1.741h-3.483V29.923h6.095c0.385-1.063,0.628-2.224,0.726-3.483h-7.111v-3.047
		h16.109V20.49h-22.93v4.354h-3.628v-7.401H156.751z M168.506,36.744v-3.918h-10.739v3.918H168.506z M168.506,43.275v-3.918h-10.739
		v3.918H168.506z"/>
	<path fill="#231815" d="M184.905,47.193V17.152h21.914v29.46h-3.773v-1.887h-14.512v2.467H184.905z M203.045,29.198V20.49h-14.512
		v8.708H203.045z M203.045,41.533v-9.288h-14.512v9.288H203.045z"/>
	<path fill="#231815" d="M231.055,21.216V14.25h3.628v6.966h14.802v3.192h-13.206c1.547,2.419,3.433,4.935,5.66,7.547
		c2.126,2.419,4.982,4.839,8.562,7.256c-0.678,0.58-1.16,1.066-1.451,1.452c-0.58,0.87-0.968,1.501-1.161,1.886
		c-1.451-1.161-3-2.562-4.644-4.208c-0.291-0.386-0.605-0.726-0.943-1.016c-0.341-0.291-0.679-0.604-1.017-0.943
		c-0.34-0.338-0.653-0.653-0.943-0.943c-1.162-1.354-2.082-2.467-2.757-3.338c-0.485-0.676-1.066-1.474-1.742-2.395
		c-0.677-0.918-1.066-1.426-1.16-1.523v9.578h6.966v3.338h-6.966v7.256h-3.628v-7.256h-6.966V37.76h6.966v-9.868
		c-1.936,2.902-3.968,5.612-6.095,8.127c-2.227,2.419-4.645,4.644-7.256,6.675c-0.678-1.161-1.404-2.126-2.177-2.902
		c2.225-1.644,3.676-2.804,4.353-3.482c1.935-1.934,3.531-3.675,4.789-5.225c1.256-1.353,2.902-3.578,4.935-6.676h-13.061v-3.192
		H231.055z"/>
	<path fill="#231815" d="M253.113,23.248v-2.612h14.368v2.612H253.113z M254.71,47.629v-12.19h11.175v11.61h-3.483v-1.451h-4.498
		v2.032H254.71z M255.145,18.749v-2.757h10.449v2.757H255.145z M255.145,28.037v-2.612h10.449v2.612H255.145z M255.145,32.826
		v-2.467h10.449v2.467H255.145z M262.401,42.985v-4.79h-4.498v4.79H262.401L262.401,42.985z M267.626,18.604v-2.757h17.995v2.757
		h-9.143l-0.727,3.918h7.837v6.966h3.337v3.048h-20.173v-3.048h4.354l0.727-4.208h-3.338v-2.757h3.773l0.871-3.918L267.626,18.604
		L267.626,18.604z M268.642,48.209V35.003h16.254v13.061h-3.482v-1.306h-9.578v1.451H268.642z M281.413,43.71v-5.66h-9.578v5.66
		H281.413z M280.251,29.488V25.28h-5.08l-0.725,4.208H280.251z"/>
	<path fill="#231815" d="M296.505,29.488v-2.757h17.851l0.58-0.436l2.177,2.902l-4.644,3.048c-0.097,0.098-0.726,0.533-1.887,1.306
		l-2.032,1.452v0.291h14.948v2.902h-14.948v6.676c0,0.774-0.291,1.354-0.871,1.742c-0.581,0.385-2.274,0.821-5.079,1.306
		c0-0.098-0.025-0.217-0.073-0.363c-0.05-0.145-0.123-0.268-0.217-0.363c-0.099-0.098-0.146-0.291-0.146-0.581
		c0-0.098-0.025-0.217-0.072-0.363c-0.05-0.145-0.123-0.218-0.218-0.218c0-0.29-0.049-0.485-0.145-0.58
		c-0.194-0.388-0.387-0.678-0.58-0.871h3.338c0.29,0,0.483-0.048,0.58-0.145c0.096-0.095,0.145-0.338,0.145-0.726v-5.515h-14.076
		v-2.902h14.077v-3.338h2.467l3.482-2.467H296.505L296.505,29.488z M315.807,14.396l3.628,1.741l-3.482,5.225h6.966v7.691h-3.338
		v-5.079h-24.816v5.08h-3.337v-7.692h20.898C313.387,19.62,314.549,17.298,315.807,14.396z M294.764,15.847l2.903-1.161
		c1.16,1.839,1.788,2.903,1.885,3.193c0.096,0.098,0.338,0.581,0.727,1.451l-3.193,1.306
		C295.828,18.023,295.055,16.427,294.764,15.847z M303.762,15.702l3.338-1.306c0.483,0.968,1.208,2.517,2.177,4.644l-3.193,1.306
		C305.599,19.184,304.826,17.638,303.762,15.702z"/>
	<path fill="#231815" d="M332.642,21.506V14.54h3.482v6.966h3.338v3.193h-3.338v3.193c0.966,1.161,2.515,2.612,4.644,4.354
		c-0.387,0.388-1.161,1.258-2.322,2.612c-0.388-0.386-1.161-1.256-2.322-2.612v15.673h-3.482V33.697
		c-0.485,0.775-0.871,1.451-1.162,2.031c-0.29,0.581-0.629,1.259-1.015,2.032c-0.969,1.356-1.647,2.227-2.032,2.612
		c-0.097-0.29-0.196-0.556-0.291-0.798c-0.097-0.241-0.145-0.458-0.145-0.653c0-0.193-0.05-0.338-0.145-0.436
		c0-0.095-0.34-0.676-1.016-1.742c1.354-1.935,2.417-3.578,3.193-4.935c1.063-2.612,1.934-4.982,2.612-7.111h-5.079v-3.193
		L332.642,21.506L332.642,21.506z M352.813,39.938c1.064,0.968,2.369,1.936,3.918,2.902c1.063,0.678,2.612,1.404,4.644,2.177
		c-0.678,0.676-1.066,1.111-1.161,1.307c0,0.095-0.098,0.337-0.29,0.726c-0.196,0.385-0.341,0.726-0.436,1.016
		c-3.871-1.646-6.871-3.531-8.998-5.66c-1.356,1.161-2.854,2.177-4.5,3.047c-1.257,0.773-3.29,1.644-6.094,2.612
		c-0.196-0.388-0.823-1.356-1.887-2.902c1.836-0.581,3.967-1.354,6.386-2.323c0.773-0.29,2.08-1.208,3.917-2.757
		c-1.355-1.644-2.227-2.853-2.612-3.628c-0.87-1.546-1.596-3.047-2.177-4.499l3.048-1.451c0.58,1.646,1.111,2.902,1.596,3.773
		c0.386,0.871,1.209,1.984,2.466,3.338c1.452-1.837,2.563-4.209,3.338-7.111l3.193,1.596c-1.16,2.612-1.886,4.208-2.177,4.789
		C354.603,37.47,353.877,38.486,352.813,39.938z M341.349,31.521c-1.355-1.547-2.082-2.37-2.176-2.467
		c1.934-1.452,3.192-2.467,3.772-3.047c0.676-0.676,1.5-1.644,2.467-2.903l2.612,1.887c-1.065,1.451-2.032,2.612-2.902,3.482
		C344.346,29.248,343.09,30.264,341.349,31.521z M348.75,19.475V14.54h3.337v4.935h8.418v3.047h-20.172v-3.047H348.75z
		 M361.376,28.617c-0.776,0.871-1.451,1.791-2.032,2.758c-2.322-1.742-4.693-3.821-7.111-6.241l2.322-2.177
		C356.297,24.699,358.569,26.585,361.376,28.617z"/>
</g>
<g>
	<g>
		<defs>
			<rect id="SVGID_13_" x="6.95" y="4" width="356.022" height="67.322"/>
		</defs>
		<clipPath id="SVGID_14_">
			<use xlink:href="#SVGID_13_"  overflow="visible"/>
		</clipPath>
		<g clip-path="url(#SVGID_14_)">
			<path fill="#231815" d="M11.363,65.385c0.726,0.381,1.887,0.763,3.067,0.763c1.271,0,1.942-0.526,1.942-1.325
				c0-0.763-0.581-1.198-2.051-1.707c-2.033-0.726-3.375-1.851-3.375-3.629c0-2.086,1.761-3.666,4.628-3.666
				c1.397,0,2.396,0.272,3.121,0.617l-0.617,2.213c-0.472-0.236-1.361-0.58-2.541-0.58c-1.198,0-1.779,0.562-1.779,1.18
				c0,0.78,0.671,1.125,2.269,1.723c2.159,0.799,3.157,1.924,3.157,3.648c0,2.051-1.561,3.793-4.918,3.793
				c-1.397,0-2.776-0.381-3.466-0.762L11.363,65.385z"/>
			<path fill="#231815" d="M23.849,56.002v4.701h4.555v-4.701h2.759v12.232h-2.759v-5.118h-4.555v5.118H21.09V56.002H23.849z"/>
			<path fill="#231815" d="M36.352,56.002v12.232h-2.759V56.002H36.352z"/>
			<path fill="#231815" d="M38.748,68.234V56.002h3.23l2.541,4.483c0.726,1.288,1.434,2.812,1.997,4.192h0.036
				c-0.164-1.615-0.218-3.267-0.218-5.118v-3.557h2.541v12.231H45.97l-2.613-4.718c-0.726-1.307-1.542-2.885-2.123-4.319h-0.073
				c0.091,1.633,0.127,3.357,0.127,5.354v3.684L38.748,68.234L38.748,68.234z"/>
			<path fill="#231815" d="M53.665,56.002h2.759v7.731c0,3.484-1.67,4.7-4.337,4.7c-0.653,0-1.488-0.109-2.033-0.291l0.309-2.232
				c0.381,0.127,0.871,0.217,1.415,0.217c1.161,0,1.887-0.526,1.887-2.413L53.665,56.002L53.665,56.002z"/>
			<path fill="#231815" d="M61.487,56.002v7.023c0,2.123,0.816,3.194,2.213,3.194c1.452,0,2.25-1.016,2.25-3.194v-7.023h2.758v6.86
				c0,3.774-1.905,5.571-5.099,5.571c-3.085,0-4.882-1.724-4.882-5.607v-6.824H61.487z"/>
			<path fill="#231815" d="M71.104,56.002h2.741v5.408h0.036c0.272-0.472,0.562-0.907,0.853-1.343l2.758-4.065h3.412l-4.047,5.208
				l4.247,7.023h-3.212l-3.012-5.281l-1.035,1.289v3.992h-2.74L71.104,56.002L71.104,56.002z"/>
			<path fill="#231815" d="M85.006,56.002v7.023c0,2.123,0.817,3.194,2.214,3.194c1.452,0,2.25-1.016,2.25-3.194v-7.023h2.758v6.86
				c0,3.774-1.906,5.571-5.1,5.571c-3.085,0-4.881-1.724-4.881-5.607v-6.824H85.006z"/>
			<path fill="#231815" d="M100.686,56.002h2.759v7.731c0,3.484-1.67,4.7-4.337,4.7c-0.653,0-1.488-0.109-2.033-0.291l0.309-2.232
				c0.381,0.127,0.871,0.217,1.415,0.217c1.161,0,1.887-0.526,1.887-2.413L100.686,56.002L100.686,56.002z"/>
			<path fill="#231815" d="M108.598,65.095l-0.871,3.139h-2.849l3.72-12.231h3.629l3.811,12.231h-2.994l-0.943-3.139H108.598z
				 M111.702,63.025l-0.762-2.594c-0.218-0.727-0.436-1.633-0.617-2.359h-0.036c-0.182,0.726-0.363,1.651-0.562,2.359l-0.726,2.594
				H111.702z"/>
			<path fill="#231815" d="M117.654,56.166c0.853-0.146,2.051-0.254,3.738-0.254c1.706,0,2.921,0.326,3.738,0.979
				c0.798,0.617,1.307,1.633,1.307,2.831s-0.381,2.232-1.125,2.904c-0.944,0.871-2.341,1.289-3.974,1.289
				c-0.363,0-0.69-0.018-0.943-0.073v4.392h-2.741V56.166L117.654,56.166z M120.395,61.719c0.236,0.054,0.508,0.072,0.925,0.072
				c1.47,0,2.377-0.744,2.377-1.979c0-1.125-0.78-1.797-2.178-1.797c-0.544,0-0.925,0.037-1.125,0.091L120.395,61.719
				L120.395,61.719z"/>
			<path fill="#231815" d="M129.958,65.095l-0.871,3.139h-2.849l3.72-12.231h3.63l3.811,12.231h-2.995l-0.943-3.139H129.958z
				 M133.061,63.025l-0.762-2.594c-0.218-0.727-0.436-1.633-0.617-2.359h-0.036c-0.182,0.726-0.363,1.651-0.562,2.359l-0.726,2.594
				H133.061z"/>
			<path fill="#231815" d="M139.013,68.234V56.002h3.23l2.541,4.483c0.726,1.288,1.434,2.812,1.996,4.192h0.037
				c-0.164-1.615-0.218-3.267-0.218-5.118v-3.557h2.541v12.231h-2.903l-2.613-4.718c-0.726-1.307-1.542-2.885-2.123-4.319h-0.073
				c0.091,1.633,0.127,3.357,0.127,5.354v3.684L139.013,68.234L139.013,68.234z"/>
			<path fill="#231815" d="M158.812,63.062h-4.5v2.903h5.026v2.269h-7.785V56.002h7.531v2.269h-4.772v2.541h4.5V63.062z"/>
			<path fill="#231815" d="M161.317,65.385c0.726,0.381,1.887,0.763,3.067,0.763c1.271,0,1.942-0.526,1.942-1.325
				c0-0.763-0.581-1.198-2.051-1.707c-2.033-0.726-3.375-1.851-3.375-3.629c0-2.086,1.761-3.666,4.628-3.666
				c1.397,0,2.396,0.272,3.121,0.617l-0.617,2.213c-0.472-0.236-1.361-0.58-2.541-0.58c-1.198,0-1.779,0.562-1.779,1.18
				c0,0.78,0.671,1.125,2.268,1.723c2.16,0.799,3.158,1.924,3.158,3.648c0,2.051-1.561,3.793-4.918,3.793
				c-1.397,0-2.776-0.381-3.466-0.762L161.317,65.385z"/>
			<path fill="#231815" d="M178.303,63.062h-4.5v2.903h5.026v2.269h-7.785V56.002h7.531v2.269h-4.772v2.541h4.5V63.062z"/>
			<path fill="#231815" d="M184.401,56.002h2.758v9.909h4.863v2.323h-7.622V56.002z"/>
			<path fill="#231815" d="M196.613,65.095l-0.871,3.139h-2.848l3.719-12.231h3.63l3.812,12.231h-2.994l-0.944-3.139H196.613z
				 M199.716,63.025l-0.761-2.594c-0.218-0.727-0.437-1.633-0.618-2.359h-0.036c-0.182,0.726-0.363,1.651-0.562,2.359l-0.726,2.594
				H199.716z"/>
			<path fill="#231815" d="M205.669,68.234V56.002h3.231l2.54,4.483c0.726,1.288,1.433,2.812,1.996,4.192h0.036
				c-0.163-1.615-0.217-3.267-0.217-5.118v-3.557h2.541v12.231h-2.903l-2.613-4.718c-0.727-1.307-1.543-2.885-2.124-4.319h-0.073
				c0.091,1.633,0.127,3.357,0.127,5.354v3.684L205.669,68.234L205.669,68.234z"/>
			<path fill="#231815" d="M228.408,67.671c-0.853,0.291-2.467,0.689-4.083,0.689c-2.232,0-3.847-0.562-4.972-1.633
				c-1.107-1.07-1.725-2.668-1.725-4.463c0.018-4.065,2.976-6.388,6.986-6.388c1.579,0,2.795,0.309,3.394,0.581l-0.581,2.232
				c-0.671-0.309-1.487-0.526-2.831-0.526c-2.305,0-4.065,1.289-4.065,3.956c0,2.541,1.597,4.01,3.865,4.01
				c0.618,0,1.125-0.072,1.343-0.163v-2.577h-1.887v-2.16h4.555L228.408,67.671L228.408,67.671z"/>
			<path fill="#231815" d="M233.326,56.002v7.023c0,2.123,0.816,3.194,2.214,3.194c1.452,0,2.25-1.016,2.25-3.194v-7.023h2.758v6.86
				c0,3.774-1.905,5.571-5.1,5.571c-3.084,0-4.88-1.724-4.88-5.607v-6.824H233.326z"/>
			<path fill="#231815" d="M245.268,65.095l-0.872,3.139h-2.849l3.721-12.231h3.629l3.811,12.231h-2.994l-0.944-3.139H245.268z
				 M248.371,63.025l-0.763-2.594c-0.217-0.727-0.435-1.633-0.616-2.359h-0.037c-0.181,0.726-0.363,1.651-0.562,2.359l-0.726,2.594
				H248.371z"/>
			<path fill="#231815" d="M264.105,67.671c-0.854,0.291-2.469,0.689-4.083,0.689c-2.233,0-3.848-0.562-4.973-1.633
				c-1.106-1.07-1.724-2.668-1.724-4.463c0.019-4.065,2.977-6.388,6.987-6.388c1.579,0,2.794,0.309,3.394,0.581l-0.581,2.232
				c-0.671-0.309-1.489-0.526-2.832-0.526c-2.304,0-4.064,1.289-4.064,3.956c0,2.541,1.596,4.01,3.866,4.01
				c0.616,0,1.125-0.072,1.343-0.163v-2.577h-1.888v-2.16h4.555V67.671z"/>
			<path fill="#231815" d="M273.542,63.062h-4.5v2.903h5.027v2.269h-7.785V56.002h7.532v2.269h-4.773v2.541h4.5V63.062z"/>
			<path fill="#231815" d="M282.398,56.002v12.232h-2.759V56.002H282.398z"/>
			<path fill="#231815" d="M284.794,68.234V56.002h3.231l2.54,4.483c0.726,1.288,1.433,2.812,1.996,4.192h0.036
				c-0.163-1.615-0.218-3.267-0.218-5.118v-3.557h2.541v12.231h-2.903l-2.613-4.718c-0.727-1.307-1.543-2.885-2.124-4.319h-0.072
				c0.091,1.633,0.127,3.357,0.127,5.354v3.684L284.794,68.234L284.794,68.234z"/>
			<path fill="#231815" d="M297.406,65.385c0.727,0.381,1.888,0.763,3.066,0.763c1.271,0,1.942-0.526,1.942-1.325
				c0-0.763-0.581-1.198-2.051-1.707c-2.031-0.726-3.375-1.851-3.375-3.629c0-2.086,1.761-3.666,4.628-3.666
				c1.398,0,2.396,0.272,3.122,0.617l-0.617,2.213c-0.472-0.236-1.362-0.58-2.541-0.58c-1.198,0-1.779,0.562-1.779,1.18
				c0,0.78,0.671,1.125,2.269,1.723c2.159,0.799,3.158,1.924,3.158,3.648c0,2.051-1.561,3.793-4.917,3.793
				c-1.398,0-2.777-0.381-3.467-0.762L297.406,65.385z"/>
			<path fill="#231815" d="M309.493,58.326h-3.303v-2.324h9.4v2.324h-3.339v9.908h-2.758V58.326L309.493,58.326z"/>
			<path fill="#231815" d="M319.837,56.002v12.232h-2.759V56.002H319.837z"/>
			<path fill="#231815" d="M324.609,58.326h-3.303v-2.324h9.401v2.324h-3.339v9.908h-2.759V58.326z"/>
			<path fill="#231815" d="M334.936,56.002v7.023c0,2.123,0.816,3.194,2.214,3.194c1.452,0,2.25-1.016,2.25-3.194v-7.023h2.759v6.86
				c0,3.774-1.905,5.571-5.1,5.571c-3.085,0-4.882-1.724-4.882-5.607v-6.824H334.936z"/>
			<path fill="#231815" d="M346.931,58.326h-3.303v-2.324h9.4v2.324h-3.339v9.908h-2.758V58.326L346.931,58.326z"/>
			<path fill="#231815" d="M361.775,63.062h-4.501v2.903h5.027v2.269h-7.785V56.002h7.531v2.269h-4.772v2.541h4.501L361.775,63.062
				L361.775,63.062z"/>
		</g>
	</g>
	<g>
		<defs>
			<rect id="SVGID_15_" x="6.95" y="4" width="356.022" height="67.322"/>
		</defs>
		<clipPath id="SVGID_16_">
			<use xlink:href="#SVGID_15_"  overflow="visible"/>
		</clipPath>
		<g clip-path="url(#SVGID_16_)">
			<path fill="#E50012" d="M33.479,8.52l1.017-0.099c0.062,0.341,0.186,0.592,0.373,0.752c0.187,0.16,0.439,0.24,0.757,0.24
				c0.336,0,0.59-0.071,0.761-0.214c0.171-0.143,0.256-0.309,0.256-0.5c0-0.123-0.036-0.227-0.108-0.312s-0.198-0.161-0.376-0.224
				c-0.122-0.042-0.401-0.118-0.837-0.226c-0.56-0.139-0.953-0.31-1.179-0.512c-0.318-0.285-0.477-0.632-0.477-1.042
				c0-0.264,0.075-0.511,0.224-0.74c0.149-0.229,0.365-0.405,0.646-0.524c0.281-0.12,0.621-0.18,1.019-0.18
				c0.65,0,1.139,0.142,1.467,0.427c0.329,0.285,0.501,0.666,0.518,1.141l-1.045,0.046c-0.045-0.266-0.141-0.458-0.288-0.574
				c-0.147-0.116-0.368-0.175-0.662-0.175c-0.303,0-0.542,0.062-0.713,0.187c-0.111,0.081-0.166,0.188-0.166,0.321
				c0,0.123,0.052,0.227,0.155,0.314c0.132,0.111,0.452,0.226,0.96,0.346c0.509,0.12,0.885,0.245,1.128,0.373
				c0.244,0.128,0.435,0.303,0.572,0.526c0.138,0.223,0.207,0.498,0.207,0.825c0,0.296-0.082,0.574-0.247,0.833
				c-0.165,0.259-0.397,0.452-0.699,0.578c-0.302,0.126-0.677,0.188-1.126,0.188c-0.654,0-1.157-0.151-1.508-0.454
				S33.547,9.099,33.479,8.52z"/>
			<path fill="#E50012" d="M38.536,10.205V5.028h1.046v5.176H38.536z"/>
			<path fill="#E50012" d="M40.588,10.205V5.028h1.017l2.119,3.457V5.028h0.971v5.176h-1.049l-2.087-3.376v3.376H40.588z"/>
			<path fill="#E50012" d="M49.112,8.301l1.013,0.321c-0.155,0.565-0.414,0.985-0.775,1.259c-0.361,0.274-0.82,0.411-1.375,0.411
				c-0.688,0-1.252-0.235-1.695-0.704c-0.443-0.47-0.664-1.112-0.664-1.926c0-0.861,0.222-1.531,0.667-2.008
				c0.445-0.476,1.03-0.715,1.755-0.715c0.633,0,1.148,0.187,1.543,0.562c0.236,0.222,0.412,0.539,0.53,0.953l-1.035,0.248
				c-0.061-0.269-0.189-0.481-0.383-0.636c-0.194-0.155-0.431-0.233-0.708-0.233c-0.384,0-0.695,0.138-0.934,0.413
				c-0.239,0.275-0.358,0.721-0.358,1.338c0,0.654,0.118,1.12,0.353,1.398s0.541,0.417,0.918,0.417c0.278,0,0.517-0.088,0.717-0.265
				C48.881,8.958,49.025,8.68,49.112,8.301z"/>
			<path fill="#E50012" d="M51.022,10.205V5.028h3.838v0.875h-2.793v1.148h2.599v0.872h-2.599v1.409h2.892v0.872H51.022z"/>
			<path fill="#E50012" d="M60.175,10.205h-0.993v-3.74c-0.362,0.339-0.79,0.59-1.282,0.752v-0.9
				c0.259-0.085,0.541-0.246,0.844-0.482c0.304-0.236,0.512-0.513,0.625-0.828h0.806V10.205z"/>
			<path fill="#E50012" d="M61.679,9.008l0.96-0.106c0.023,0.195,0.084,0.34,0.184,0.434s0.229,0.141,0.392,0.141
				c0.205,0,0.379-0.094,0.522-0.282c0.144-0.188,0.235-0.58,0.275-1.172c-0.25,0.29-0.562,0.435-0.936,0.435
				c-0.407,0-0.759-0.157-1.054-0.472c-0.295-0.314-0.443-0.723-0.443-1.227c0-0.524,0.155-0.948,0.468-1.269
				c0.312-0.321,0.708-0.482,1.191-0.482c0.525,0,0.956,0.203,1.292,0.609s0.505,1.074,0.505,2.004c0,0.946-0.175,1.629-0.526,2.048
				c-0.351,0.419-0.807,0.628-1.37,0.628c-0.405,0-0.732-0.107-0.981-0.323C61.91,9.758,61.749,9.436,61.679,9.008z M63.924,6.84
				c0-0.32-0.074-0.568-0.22-0.746c-0.147-0.177-0.318-0.265-0.51-0.265c-0.184,0-0.336,0.073-0.458,0.217
				c-0.121,0.145-0.181,0.381-0.181,0.711c0,0.334,0.066,0.58,0.198,0.736s0.296,0.235,0.495,0.235c0.19,0,0.351-0.076,0.482-0.226
				C63.859,7.353,63.924,7.131,63.924,6.84z"/>
			<path fill="#E50012" d="M65.68,6.02V5.099h3.394v0.72c-0.281,0.275-0.565,0.671-0.855,1.187s-0.51,1.063-0.662,1.644
				c-0.152,0.58-0.226,1.099-0.224,1.556h-0.957c0.016-0.715,0.164-1.445,0.443-2.189c0.279-0.744,0.651-1.409,1.118-1.995
				L65.68,6.02L65.68,6.02z"/>
			<path fill="#E50012" d="M69.716,8.873l0.989-0.102c0.028,0.224,0.111,0.4,0.25,0.531c0.139,0.13,0.299,0.196,0.48,0.196
				c0.207,0,0.383-0.084,0.526-0.252c0.144-0.169,0.216-0.422,0.216-0.761c0-0.318-0.071-0.556-0.214-0.715
				c-0.143-0.159-0.328-0.238-0.556-0.238c-0.285,0-0.54,0.126-0.766,0.377l-0.806-0.116l0.509-2.694h2.624v0.929h-1.871
				l-0.155,0.879c0.221-0.11,0.447-0.166,0.678-0.166c0.44,0,0.813,0.161,1.12,0.48c0.306,0.32,0.459,0.736,0.459,1.246
				c0,0.426-0.124,0.806-0.371,1.141c-0.337,0.457-0.804,0.685-1.402,0.685c-0.478,0-0.867-0.128-1.169-0.385
				C69.954,9.651,69.774,9.307,69.716,8.873z"/>
		</g>
	</g>
</g>
</svg>
